<svg width="442" height="156" viewBox="0 0 442 156" fill="none" xmlns="http://www.w3.org/2000/svg">
<path d="M0 57C0 51.4772 4.47715 47 10 47H375C380.523 47 385 51.4772 385 57V146C385 151.523 380.523 156 375 156H10C4.47716 156 0 151.523 0 146V57Z" fill="#F45F13"/>
<path d="M88.5621 61.304C88.5621 66.0827 87.4101 70.5627 85.1061 74.744C82.8875 78.9253 79.3461 82.296 74.4821 84.856C69.7035 87.416 63.6448 88.696 56.3061 88.696H41.3301V123H23.4101V33.656H56.3061C63.2181 33.656 69.1061 34.8507 73.9701 37.24C78.8341 39.6293 82.4608 42.9147 84.8501 47.096C87.3248 51.2773 88.5621 56.0133 88.5621 61.304ZM55.5381 74.232C60.4875 74.232 64.1568 73.1227 66.5461 70.904C68.9355 68.6 70.1301 65.4 70.1301 61.304C70.1301 52.6 65.2661 48.248 55.5381 48.248H41.3301V74.232H55.5381ZM148.517 95.256C148.517 97.176 148.389 98.904 148.133 100.44H109.253C109.573 104.28 110.917 107.288 113.285 109.464C115.653 111.64 118.565 112.728 122.021 112.728C127.013 112.728 130.565 110.584 132.677 106.296H147.173C145.637 111.416 142.693 115.64 138.341 118.968C133.989 122.232 128.645 123.864 122.309 123.864C117.189 123.864 112.581 122.744 108.485 120.504C104.453 118.2 101.285 114.968 98.9811 110.808C96.7411 106.648 95.6211 101.848 95.6211 96.408C95.6211 90.904 96.7411 86.072 98.9811 81.912C101.221 77.752 104.357 74.552 108.389 72.312C112.421 70.072 117.061 68.952 122.309 68.952C127.365 68.952 131.877 70.04 135.845 72.216C139.877 74.392 142.981 77.496 145.157 81.528C147.397 85.496 148.517 90.072 148.517 95.256ZM134.597 91.416C134.533 87.96 133.285 85.208 130.853 83.16C128.421 81.048 125.445 79.992 121.925 79.992C118.597 79.992 115.781 81.016 113.477 83.064C111.237 85.048 109.861 87.832 109.349 91.416H134.597ZM173.975 80.856V106.584C173.975 108.376 174.391 109.688 175.223 110.52C176.119 111.288 177.591 111.672 179.639 111.672H185.879V123H177.431C166.103 123 160.439 117.496 160.439 106.488V80.856H154.103V69.816H160.439V56.664H173.975V69.816H185.879V80.856H173.975ZM208.762 123.448C205.647 123.448 202.831 122.915 200.314 121.848C197.839 120.781 195.877 119.245 194.426 117.24C192.975 115.235 192.229 112.867 192.186 110.136H201.786C201.914 111.971 202.554 113.421 203.706 114.488C204.901 115.555 206.522 116.088 208.57 116.088C210.661 116.088 212.303 115.597 213.498 114.616C214.693 113.592 215.29 112.269 215.29 110.648C215.29 109.325 214.885 108.237 214.074 107.384C213.263 106.531 212.239 105.869 211.002 105.4C209.807 104.888 208.143 104.333 206.01 103.736C203.109 102.883 200.741 102.051 198.906 101.24C197.114 100.387 195.557 99.128 194.234 97.464C192.954 95.7573 192.314 93.496 192.314 90.68C192.314 88.0347 192.975 85.7307 194.298 83.768C195.621 81.8053 197.477 80.312 199.866 79.288C202.255 78.2213 204.986 77.688 208.058 77.688C212.666 77.688 216.399 78.8187 219.258 81.08C222.159 83.2987 223.759 86.4133 224.058 90.424H214.202C214.117 88.888 213.455 87.6293 212.218 86.648C211.023 85.624 209.423 85.112 207.418 85.112C205.669 85.112 204.261 85.56 203.194 86.456C202.17 87.352 201.658 88.6533 201.658 90.36C201.658 91.5547 202.042 92.5573 202.81 93.368C203.621 94.136 204.602 94.776 205.754 95.288C206.949 95.7573 208.613 96.312 210.746 96.952C213.647 97.8053 216.015 98.6587 217.85 99.512C219.685 100.365 221.263 101.645 222.586 103.352C223.909 105.059 224.57 107.299 224.57 110.072C224.57 112.461 223.951 114.68 222.714 116.728C221.477 118.776 219.663 120.419 217.274 121.656C214.885 122.851 212.047 123.448 208.762 123.448ZM265.298 104.504C265.298 105.784 265.213 106.936 265.042 107.96H239.122C239.335 110.52 240.231 112.525 241.81 113.976C243.389 115.427 245.33 116.152 247.634 116.152C250.962 116.152 253.33 114.723 254.738 111.864H264.402C263.378 115.277 261.415 118.093 258.514 120.312C255.613 122.488 252.05 123.576 247.826 123.576C244.413 123.576 241.341 122.829 238.61 121.336C235.922 119.8 233.81 117.645 232.274 114.872C230.781 112.099 230.034 108.899 230.034 105.272C230.034 101.603 230.781 98.3813 232.274 95.608C233.767 92.8347 235.858 90.7013 238.546 89.208C241.234 87.7147 244.327 86.968 247.826 86.968C251.197 86.968 254.205 87.6933 256.85 89.144C259.538 90.5947 261.607 92.664 263.058 95.352C264.551 97.9973 265.298 101.048 265.298 104.504ZM256.018 101.944C255.975 99.64 255.143 97.8053 253.522 96.44C251.901 95.032 249.917 94.328 247.57 94.328C245.351 94.328 243.474 95.0107 241.938 96.376C240.445 97.6987 239.527 99.5547 239.186 101.944H256.018ZM280.798 93.048C281.95 91.1707 283.443 89.6987 285.278 88.632C287.155 87.5653 289.289 87.032 291.678 87.032V96.44H289.31C286.494 96.44 284.361 97.1013 282.91 98.424C281.502 99.7467 280.798 102.051 280.798 105.336V123H271.838V87.544H280.798V93.048ZM312.497 114.744L321.457 87.544H330.993L317.873 123H306.993L293.937 87.544H303.537L312.497 114.744ZM340.569 83.32C338.991 83.32 337.668 82.8293 336.601 81.848C335.577 80.824 335.065 79.5653 335.065 78.072C335.065 76.5787 335.577 75.3413 336.601 74.36C337.668 73.336 338.991 72.824 340.569 72.824C342.148 72.824 343.449 73.336 344.473 74.36C345.54 75.3413 346.073 76.5787 346.073 78.072C346.073 79.5653 345.54 80.824 344.473 81.848C343.449 82.8293 342.148 83.32 340.569 83.32ZM344.985 87.544V123H336.025V87.544H344.985ZM351.534 105.272C351.534 101.603 352.281 98.4027 353.774 95.672C355.267 92.8987 357.337 90.7653 359.982 89.272C362.627 87.736 365.657 86.968 369.07 86.968C373.465 86.968 377.091 88.0773 379.95 90.296C382.851 92.472 384.793 95.544 385.774 99.512H376.11C375.598 97.976 374.723 96.7813 373.486 95.928C372.291 95.032 370.798 94.584 369.006 94.584C366.446 94.584 364.419 95.5227 362.926 97.4C361.433 99.2347 360.686 101.859 360.686 105.272C360.686 108.643 361.433 111.267 362.926 113.144C364.419 114.979 366.446 115.896 369.006 115.896C372.633 115.896 375.001 114.275 376.11 111.032H385.774C384.793 114.872 382.851 117.923 379.95 120.184C377.049 122.445 373.422 123.576 369.07 123.576C365.657 123.576 362.627 122.829 359.982 121.336C357.337 119.8 355.267 117.667 353.774 114.936C352.281 112.163 351.534 108.941 351.534 105.272ZM425.298 104.504C425.298 105.784 425.213 106.936 425.042 107.96H399.122C399.335 110.52 400.231 112.525 401.81 113.976C403.389 115.427 405.33 116.152 407.634 116.152C410.962 116.152 413.33 114.723 414.738 111.864H424.402C423.378 115.277 421.415 118.093 418.514 120.312C415.613 122.488 412.05 123.576 407.826 123.576C404.413 123.576 401.341 122.829 398.61 121.336C395.922 119.8 393.81 117.645 392.274 114.872C390.781 112.099 390.034 108.899 390.034 105.272C390.034 101.603 390.781 98.3813 392.274 95.608C393.767 92.8347 395.858 90.7013 398.546 89.208C401.234 87.7147 404.327 86.968 407.826 86.968C411.197 86.968 414.205 87.6933 416.85 89.144C419.538 90.5947 421.607 92.664 423.058 95.352C424.551 97.9973 425.298 101.048 425.298 104.504ZM416.018 101.944C415.975 99.64 415.143 97.8053 413.522 96.44C411.901 95.032 409.917 94.328 407.57 94.328C405.351 94.328 403.474 95.0107 401.938 96.376C400.445 97.6987 399.527 99.5547 399.186 101.944H416.018Z" fill="white"/>
</svg>
